<svg aria-hidden="true" style="position: absolute; width: 0; height: 0; overflow: hidden;" version="1.1" xmlns="http://www.w3.org/2000/svg" xmlns:xlink="http://www.w3.org/1999/xlink">
<defs>
<symbol id="icon-E-mail" viewBox="0 0 32 32">
<path d="M14.281 1.387c-1.944 0.219-4.269 1.031-5.969 2.081-1.375 0.856-2.95 2.256-3.888 3.469-1.6 2.069-2.606 4.45-3 7.094-0.125 0.85-0.106 3.2 0.031 4.094 0.644 4.156 2.944 7.781 6.419 10.1 1.794 1.194 3.894 2 6.037 2.319 1.025 0.15 3.15 0.15 4.175 0 2.569-0.381 5.094-1.481 7.1-3.087 2.869-2.3 4.775-5.606 5.356-9.281 0.156-0.994 0.156-3.356 0-4.35-0.519-3.275-2.056-6.219-4.425-8.475-2.313-2.2-5.381-3.631-8.506-3.969-0.712-0.081-2.619-0.075-3.331 0.006zM25.438 8.869c0 0.031-0.113 0.15-0.244 0.269-0.488 0.412-4.006 3.656-4.225 3.888-0.113 0.119-2.012 1.887-3.544 3.294-0.731 0.675-1.044 0.869-1.413 0.869-0.488 0-0.506-0.012-3.1-2.4-0.519-0.475-1.194-1.113-1.506-1.406-1.006-0.969-4.044-3.769-4.6-4.244-0.131-0.119-0.244-0.238-0.244-0.269s3.756-0.056 9.438-0.056c5.681 0 9.438 0.025 9.438 0.056zM8.625 12.262c0.944 0.863 2.069 1.906 2.5 2.313l0.775 0.738-0.244 0.244c-0.137 0.131-1.363 1.263-2.719 2.506-1.356 1.25-2.694 2.488-2.969 2.75-0.275 0.269-0.619 0.587-0.763 0.719l-0.269 0.231v-6.069c0-6.213 0-6.188 0.237-6.456 0.088-0.1 0.15-0.050 0.912 0.669 0.45 0.425 1.594 1.488 2.538 2.356zM26.95 9.444c0.106 0.2 0.113 0.625 0.113 6.269v6.050l-0.4-0.363c-0.913-0.837-5.663-5.269-6.069-5.662l-0.438-0.431 0.6-0.575c0.325-0.319 1.494-1.394 2.587-2.387 1.1-1 2.306-2.113 2.688-2.481 0.375-0.369 0.719-0.662 0.75-0.656 0.038 0.012 0.113 0.119 0.169 0.238zM13.719 16.944c1.256 1.175 1.438 1.275 2.313 1.275 0.894 0 1.069-0.094 2.294-1.244 0.544-0.506 1.012-0.913 1.044-0.9 0.038 0.006 0.494 0.431 1.019 0.931s1.775 1.663 2.769 2.581c2.669 2.462 3.5 3.25 3.5 3.319 0 0.031-0.1 0.113-0.219 0.175-0.206 0.1-0.806 0.106-10.5 0.094-10.2-0.019-10.281-0.019-10.481-0.144l-0.2-0.125 0.981-0.919c0.537-0.5 1.938-1.8 3.106-2.881 1.169-1.087 2.394-2.225 2.719-2.538 0.325-0.306 0.606-0.563 0.625-0.563s0.481 0.419 1.031 0.938z"></path>
</symbol>
<symbol id="icon-GitHub" viewBox="0 0 32 32">
<path d="M29.854 8.36c-1.431-2.451-3.371-4.392-5.823-5.823s-5.128-2.146-8.031-2.146c-2.903 0-5.58 0.715-8.031 2.146s-4.392 3.371-5.823 5.823c-1.431 2.451-2.146 5.128-2.146 8.031 0 3.486 1.017 6.621 3.052 9.406s4.663 4.712 7.885 5.781c0.375 0.070 0.653 0.021 0.833-0.146s0.271-0.375 0.271-0.625c0-0.042-0.004-0.416-0.011-1.125s-0.011-1.326-0.011-1.854l-0.479 0.083c-0.306 0.056-0.691 0.080-1.156 0.073s-0.948-0.055-1.448-0.146c-0.5-0.090-0.965-0.298-1.396-0.625s-0.736-0.754-0.916-1.281l-0.208-0.479c-0.139-0.319-0.357-0.674-0.656-1.062s-0.601-0.653-0.906-0.792l-0.146-0.104c-0.097-0.069-0.187-0.153-0.271-0.25s-0.146-0.194-0.187-0.292c-0.042-0.097-0.007-0.177 0.104-0.24s0.312-0.093 0.604-0.093l0.417 0.062c0.278 0.056 0.621 0.222 1.031 0.5s0.746 0.639 1.010 1.083c0.32 0.57 0.705 1.004 1.156 1.302s0.906 0.448 1.364 0.448 0.854-0.035 1.187-0.104c0.333-0.069 0.646-0.174 0.937-0.313 0.125-0.931 0.465-1.646 1.021-2.146-0.792-0.083-1.503-0.208-2.135-0.375s-1.285-0.438-1.958-0.813c-0.674-0.375-1.233-0.84-1.677-1.396s-0.809-1.285-1.094-2.188c-0.285-0.903-0.427-1.944-0.427-3.125 0-1.681 0.549-3.111 1.646-4.292-0.514-1.264-0.465-2.68 0.146-4.25 0.403-0.125 1-0.031 1.792 0.281s1.371 0.58 1.74 0.802c0.368 0.222 0.663 0.41 0.885 0.562 1.292-0.361 2.625-0.541 4-0.541s2.708 0.181 4 0.541l0.792-0.5c0.541-0.333 1.181-0.639 1.916-0.917s1.299-0.354 1.688-0.229c0.625 1.569 0.68 2.986 0.166 4.25 1.097 1.181 1.646 2.611 1.646 4.292 0 1.18-0.143 2.225-0.427 3.135s-0.652 1.639-1.104 2.188c-0.452 0.549-1.014 1.011-1.688 1.385s-1.327 0.646-1.958 0.813c-0.632 0.167-1.344 0.292-2.135 0.375 0.722 0.625 1.083 1.611 1.083 2.958v4.395c0 0.25 0.087 0.458 0.261 0.625s0.448 0.215 0.823 0.146c3.222-1.069 5.851-2.996 7.886-5.781s3.052-5.92 3.052-9.406c-0.001-2.902-0.716-5.579-2.146-8.030z"></path>
</symbol>
<symbol id="icon-LinkedIn" viewBox="0 0 32 32">
<path d="M0 16c0-8.837 7.163-16 16-16s16 7.163 16 16c0 8.837-7.163 16-16 16s-16-7.163-16-16zM11.307 13.252h-3.626v10.895h3.626v-10.895zM11.546 9.882c-0.024-1.068-0.787-1.882-2.028-1.882s-2.051 0.814-2.051 1.882c0 1.046 0.787 1.883 2.004 1.883h0.023c1.264 0 2.052-0.837 2.052-1.883zM24.384 17.9c0-3.346-1.789-4.904-4.175-4.904-1.925 0-2.787 1.057-3.268 1.799v-1.543h-3.626c0.048 1.022 0 10.894 0 10.894h3.626v-6.084c0-0.326 0.024-0.65 0.119-0.884 0.262-0.65 0.859-1.324 1.86-1.324 1.313 0 1.837 0.999 1.837 2.463v5.829h3.626l0-6.247z"></path>
</symbol>
<symbol id="icon-Location2" viewBox="0 0 32 32">
<path d="M16 7c-3.515 0-5.614 2.197-5.614 5.878 0 2.095 2.783 6.934 5.614 10.797 2.813-3.877 5.615-8.655 5.615-10.797 0-3.681-2.099-5.878-5.614-5.878zM15.994 15.396c-1.362 0-2.466-1.104-2.466-2.466s1.104-2.466 2.466-2.466c1.362 0 2.466 1.104 2.466 2.466s-1.104 2.466-2.466 2.466z"></path>
<path d="M16 0c-8.836 0-16 7.163-16 16s7.163 16 16 16c8.837 0 16-7.163 16-16s-7.163-16-16-16zM16.937 25.77l-0.937 1.23-0.931-1.23c-0.685-0.896-6.683-8.903-6.683-12.892 0-4.785 2.987-7.878 7.614-7.878s7.614 3.092 7.614 7.878c0 3.983-5.998 11.99-6.678 12.892z"></path>
</symbol>
<symbol id="icon-Phone2" viewBox="0 0 32 32">
<path d="M16 0c-8.836 0-16 7.164-16 16s7.164 16 16 16 16-7.164 16-16c0-8.836-7.164-16-16-16zM24.449 23.346l-1.281 1.281c-0.229 0.228-0.898 0.371-0.92 0.371-4.053 0.035-7.955-1.557-10.822-4.424-2.875-2.877-4.469-6.793-4.426-10.859 0-0.002 0.147-0.652 0.375-0.879l1.281-1.281c0.469-0.471 1.369-0.684 2-0.473l0.269 0.090c0.629 0.211 1.289 0.906 1.463 1.547l0.644 2.365c0.174 0.643-0.061 1.557-0.529 2.025l-0.855 0.855c0.84 3.109 3.279 5.549 6.389 6.391l0.855-0.856c0.471-0.471 1.385-0.705 2.026-0.532l2.365 0.647c0.641 0.176 1.336 0.832 1.547 1.461l0.090 0.273c0.209 0.629-0.002 1.529-0.471 1.996z"></path>
</symbol>
<symbol id="icon-Telegram" viewBox="0 0 32 32">
<path   d="M0 16c0 8.837 7.163 16 16 16s16-7.163 16-16-7.163-16-16-16-16 7.163-16 16z"></path>
<path fill="#c8daea" style="fill: var(--color2, #c8daea)" d="M10.831 17.169l1.898 5.254s0.237 0.491 0.492 0.491 4.034-3.932 4.034-3.932l4.203-8.119-10.559 4.949z"></path>
<path fill="#a9c6d8" style="fill: var(--color3, #a9c6d8)" d="M13.347 18.517l-0.364 3.873s-0.153 1.186 1.034 0 2.322-2.102 2.322-2.102z"></path>
<path fill="#fff" style="fill: var(--color4, #fff)" d="M10.865 17.357l-3.904-1.272s-0.466-0.189-0.316-0.619c0.031-0.089 0.093-0.164 0.28-0.294 0.865-0.603 16.014-6.048 16.014-6.048s0.428-0.144 0.681-0.048c0.116 0.044 0.189 0.093 0.251 0.274 0.023 0.066 0.036 0.206 0.034 0.345-0.001 0.1-0.014 0.193-0.023 0.339-0.092 1.489-2.853 12.599-2.853 12.599s-0.165 0.65-0.757 0.672c-0.216 0.008-0.478-0.036-0.791-0.305-1.161-0.999-5.176-3.697-6.063-4.29-0.050-0.033-0.064-0.077-0.073-0.119-0.012-0.062 0.054-0.14 0.054-0.14s6.99-6.214 7.176-6.866c0.014-0.051-0.040-0.076-0.113-0.054-0.464 0.171-8.513 5.253-9.401 5.814-0.052 0.033-0.198 0.012-0.198 0.012z"></path>
</symbol>
</defs>
</svg>
